<!--version="1.0" encoding="utf-8"--><!-- Generator: Adobe Illustrator 27.4.1, SVG Export Plug-In . SVG Version: 6.00 Build 0)  --><svg version="1.1" id="Layer_1" xmlns="http://www.w3.org/2000/svg" xmlns:xlink="http://www.w3.org/1999/xlink" x="0px" y="0px" width="28px" height="28px" viewBox="0 0 28 28" enable-background="new 0 0 28 28" xml:space="preserve"><g><path fill-rule="evenodd" clip-rule="evenodd" fill="#12509A" d="M25.4,5h-1.6c-0.9,0-1.6,0.7-1.6,1.6c0,0,0,0,0,0l0,0v13.1   c0,0.9,0.7,1.6,1.6,1.6h0h1.6c0.9,0,1.6-0.7,1.6-1.6v0l0,0V6.7C27,5.8,26.3,5,25.4,5z M25.4,19.8h-1.6V6.6h1.6V19.8z"/><rect x="23.7" y="6.7" fill="#12509A" width="1.6" height="13.1"/><path fill-rule="evenodd" clip-rule="evenodd" fill="#12509A" d="M11.3,8.3H9.7C8.8,8.3,8,9,8,9.9c0,0,0,0,0,0l0,0v9.8   c0,0.9,0.7,1.6,1.6,1.6c0,0,0,0,0,0h1.6c0.9,0,1.6-0.7,1.6-1.6l0,0l0,0V10C12.9,9.1,12.2,8.3,11.3,8.3L11.3,8.3z M11.3,19.8H9.7V10   h1.6V19.8z"/><rect x="9.7" y="10" fill="#12509A" width="1.6" height="9.8"/><path fill-rule="evenodd" clip-rule="evenodd" fill="#12509A" d="M18.3,11.6h-1.6c-0.9,0-1.6,0.7-1.6,1.6v6.5   c0,0.9,0.7,1.6,1.6,1.6h1.6c0.9,0,1.6-0.8,1.6-1.7l0,0v-6.5C20,12.3,19.2,11.6,18.3,11.6z M18.3,19.8h-1.6v-6.5h1.6V19.8z"/><rect x="16.7" y="13.2" fill="#12509A" width="1.6" height="6.5"/><path fill-rule="evenodd" clip-rule="evenodd" fill="#12509A" d="M4.3,11.6H2.7c-0.9,0-1.6,0.7-1.6,1.6c0,0,0,0,0,0v6.5   c0,0.9,0.8,1.6,1.6,1.6h1.6c0.9,0,1.6-0.7,1.6-1.6l0,0l0,0v-6.5C5.9,12.3,5.2,11.6,4.3,11.6z M4.3,19.8H2.7v-6.5h1.6V19.8z"/><rect x="2.7" y="13.2" fill="#12509A" width="1.6" height="6.5"/><ellipse fill="#12509A" cx="14" cy="22.5" rx="13.7" ry="0.4"/></g></svg>