<!--version="1.0" encoding="utf-8"--><!-- Generator: Adobe Illustrator 27.4.1, SVG Export Plug-In . SVG Version: 6.00 Build 0)  --><svg version="1.1" id="Layer_1" xmlns="http://www.w3.org/2000/svg" xmlns:xlink="http://www.w3.org/1999/xlink" x="0px" y="0px" width="28px" height="28px" viewBox="0 0 28 28" enable-background="new 0 0 28 28" xml:space="preserve"><g><path opacity="0.15" fill="#12509A" enable-background="new    " d="M20.2,27.2c-0.1,0.1-11.6-0.3-11.6-0.3s-4.6-1-4.8-1.4   C3.7,25,3.3,2,3.3,2l9.3-1.3l11.3,0.8l0.5,21.9l-0.5,2.9L20.2,27.2z"/><path fill="#12509A" d="M23.4,0.2H4.6c-0.9,0-1.6,0.7-1.7,1.6c0,0,0,0,0,0l0,0v24.4c0,0.9,0.7,1.6,1.6,1.6h18.9   c0.9,0,1.6-0.7,1.7-1.6c0,0,0,0,0,0l0,0V1.8C25.1,0.9,24.3,0.2,23.4,0.2L23.4,0.2z M23.4,24.7H4.8V3.2h18.7V24.7z M11.9,1.5h4.1   c0.1,0,0.2,0.1,0.2,0.2c0,0.1-0.1,0.2-0.2,0.2H12c-0.1,0-0.2-0.1-0.2-0.2C11.8,1.6,11.9,1.6,11.9,1.5L11.9,1.5z M15.9,26.5   c0,0.2-0.1,0.3-0.3,0.3h0h-3.2c-0.2,0-0.3-0.1-0.3-0.3c0,0,0,0,0,0V26c0-0.2,0.1-0.3,0.3-0.3h3.2c0.2,0,0.3,0.1,0.3,0.3l0,0   L15.9,26.5z"/></g></svg>